<svg width="94" height="97" viewBox="0 0 94 97" fill="none" xmlns="http://www.w3.org/2000/svg">
<path d="M93.9875 11.8396L13.3384 16.262V96.33L93.9875 91.9076V11.8396Z" fill="#047EFB"/>
<path d="M80.6801 -9.55722e-05L0.0146484 4.41339L13.3205 16.249L93.986 11.8356L80.6801 -9.55722e-05Z" fill="#7BBCFF"/>
<path d="M13.3328 16.2685L0.0107422 4.40778V84.4705L13.3328 96.3312V16.2685Z" fill="#313BCF"/>
<path fill-rule="evenodd" clip-rule="evenodd" d="M34.4877 66.6814C35.7855 65.708 37.6268 65.9711 38.6002 67.2689C39.6031 68.6061 44.6573 73.4377 53.8752 73.4377C63.093 73.4377 68.1473 68.6061 69.1502 67.2689C70.1236 65.9711 71.9648 65.708 73.2627 66.6814C74.5605 67.6548 74.8236 69.4961 73.8502 70.7939C71.9156 73.3734 65.2198 79.3127 53.8752 79.3127C42.5305 79.3127 35.8348 73.3734 33.9002 70.7939C32.9268 69.4961 33.1898 67.6548 34.4877 66.6814Z" fill="url(#paint0_radial_5165_11144)"/>
<path fill-rule="evenodd" clip-rule="evenodd" d="M34.4877 66.6814C35.7855 65.708 37.6268 65.9711 38.6002 67.2689C39.6031 68.6061 44.6573 73.4377 53.8752 73.4377C63.093 73.4377 68.1473 68.6061 69.1502 67.2689C70.1236 65.9711 71.9648 65.708 73.2627 66.6814C74.5605 67.6548 74.8236 69.4961 73.8502 70.7939C71.9156 73.3734 65.2198 79.3127 53.8752 79.3127C42.5305 79.3127 35.8348 73.3734 33.9002 70.7939C32.9268 69.4961 33.1898 67.6548 34.4877 66.6814Z" fill="url(#paint1_radial_5165_11144)"/>
<path fill-rule="evenodd" clip-rule="evenodd" d="M34.4877 66.6814C35.7855 65.708 37.6268 65.9711 38.6002 67.2689C39.6031 68.6061 44.6573 73.4377 53.8752 73.4377C63.093 73.4377 68.1473 68.6061 69.1502 67.2689C70.1236 65.9711 71.9648 65.708 73.2627 66.6814C74.5605 67.6548 74.8236 69.4961 73.8502 70.7939C71.9156 73.3734 65.2198 79.3127 53.8752 79.3127C42.5305 79.3127 35.8348 73.3734 33.9002 70.7939C32.9268 69.4961 33.1898 67.6548 34.4877 66.6814Z" fill="url(#paint2_radial_5165_11144)"/>
<path fill-rule="evenodd" clip-rule="evenodd" d="M39.6562 29.375C39.6562 28.5638 38.9987 27.9062 38.1875 27.9062C35.9131 27.9062 33.0689 28.7414 30.5953 30.3459C28.1034 31.9623 25.8589 34.4462 25.0126 37.8313C24.8159 38.6182 25.2943 39.4157 26.0813 39.6124C26.8682 39.8091 27.6657 39.3307 27.8624 38.5437C28.4849 36.0538 30.157 34.1315 32.1938 32.8103C34.2488 31.4774 36.5452 30.8438 38.1875 30.8438C38.9987 30.8438 39.6562 30.1862 39.6562 29.375Z" fill="url(#paint3_linear_5165_11144)"/>
<path fill-rule="evenodd" clip-rule="evenodd" d="M77.6399 32.8386C79.3816 34.4921 80.4348 36.4815 80.8562 37.7457C81.1127 38.5153 81.9445 38.9311 82.7141 38.6746C83.4836 38.4181 83.8995 37.5863 83.643 36.8168C83.0852 35.1435 81.7885 32.7267 79.6624 30.7083C77.5114 28.6661 74.4714 27 70.4996 27C69.6884 27 69.0309 27.6576 69.0309 28.4688C69.0309 29.2799 69.6884 29.9375 70.4996 29.9375C73.5778 29.9375 75.9232 31.2089 77.6399 32.8386Z" fill="url(#paint4_linear_5165_11144)"/>
<path fill-rule="evenodd" clip-rule="evenodd" d="M39.9309 45.9902C43.1513 45.9902 44.186 48.0385 44.3321 48.6262C44.7232 50.2007 46.3167 51.16 47.8911 50.7688C49.4656 50.3777 50.4249 48.7842 50.0337 47.2097C49.374 44.554 46.3799 40.1152 39.9309 40.1152C33.482 40.1152 30.4879 44.554 29.8281 47.2097C29.437 48.7842 30.3963 50.3777 31.9708 50.7688C33.5452 51.16 35.1387 50.2007 35.5298 48.6262C35.6758 48.0385 36.7106 45.9902 39.9309 45.9902Z" fill="url(#paint5_radial_5165_11144)"/>
<path fill-rule="evenodd" clip-rule="evenodd" d="M68.1902 45.9902C71.4106 45.9902 72.4453 48.0385 72.5913 48.6262C72.9825 50.2007 74.5759 51.16 76.1504 50.7688C77.7249 50.3777 78.6842 48.7842 78.293 47.2097C77.6333 44.554 74.6391 40.1152 68.1902 40.1152C61.7413 40.1152 58.7472 44.554 58.0874 47.2097C57.6963 48.7842 58.6556 50.3777 60.23 50.7688C61.8045 51.16 63.398 50.2007 63.7891 48.6262C63.9351 48.0385 64.9699 45.9902 68.1902 45.9902Z" fill="url(#paint6_radial_5165_11144)"/>
<defs>
<radialGradient id="paint0_radial_5165_11144" cx="0" cy="0" r="1" gradientUnits="userSpaceOnUse" gradientTransform="translate(53.8752 62.7893) rotate(90) scale(18.1758 28.851)">
<stop offset="0.464452" stop-color="#241A1A"/>
<stop offset="0.663489" stop-color="#554248"/>
<stop offset="1" stop-color="#4E2553"/>
<stop offset="1" stop-color="#4A274E"/>
</radialGradient>
<radialGradient id="paint1_radial_5165_11144" cx="0" cy="0" r="1" gradientUnits="userSpaceOnUse" gradientTransform="translate(53.8752 70.4119) rotate(90) scale(26.0743 25.7783)">
<stop offset="0.483976" stop-color="#4F302E" stop-opacity="0"/>
<stop offset="1" stop-color="#4F302E"/>
</radialGradient>
<radialGradient id="paint2_radial_5165_11144" cx="0" cy="0" r="1" gradientUnits="userSpaceOnUse" gradientTransform="translate(72.5442 67.9849) rotate(39.3327) scale(2.9658 2.13554)">
<stop stop-color="#5B4A50"/>
<stop offset="1" stop-color="#5B4A50" stop-opacity="0"/>
</radialGradient>
<linearGradient id="paint3_linear_5165_11144" x1="37.2083" y1="40.8312" x2="37.2083" y2="35.5437" gradientUnits="userSpaceOnUse">
<stop offset="0.0299084" stop-color="#524049"/>
<stop offset="1" stop-color="#4A2C42"/>
</linearGradient>
<linearGradient id="paint4_linear_5165_11144" x1="81.2704" y1="39.925" x2="81.2704" y2="34.6375" gradientUnits="userSpaceOnUse">
<stop offset="0.0299084" stop-color="#524049"/>
<stop offset="1" stop-color="#4A2C42"/>
</linearGradient>
<radialGradient id="paint5_radial_5165_11144" cx="0" cy="0" r="1" gradientUnits="userSpaceOnUse" gradientTransform="translate(39.931 47.918) rotate(90) scale(9.73047 14.1637)">
<stop offset="0.337213" stop-color="#4D274B"/>
<stop offset="0.628228" stop-color="#514047"/>
<stop offset="1" stop-color="#4E2553"/>
<stop offset="1" stop-color="#4A342F"/>
</radialGradient>
<radialGradient id="paint6_radial_5165_11144" cx="0" cy="0" r="1" gradientUnits="userSpaceOnUse" gradientTransform="translate(68.1902 47.918) rotate(90) scale(9.73047 14.1637)">
<stop offset="0.337213" stop-color="#4D274B"/>
<stop offset="0.628228" stop-color="#514047"/>
<stop offset="1" stop-color="#4E2553"/>
<stop offset="1" stop-color="#4A342F"/>
</radialGradient>
</defs>
</svg>
