<svg width="117" height="121" viewBox="0 0 117 121" fill="none" xmlns="http://www.w3.org/2000/svg">
<g clip-path="url(#clip0_1246_23056)">
<path d="M115.033 15.0278L16.3086 20.4414V118.454L115.033 113.04V15.0278Z" fill="#136CFF"/>
<path d="M73.4005 93.725C73.1345 93.7395 72.8685 93.7124 72.6025 93.6412C68.0572 92.4058 63.2665 92.6668 58.7212 94.3975C57.368 94.9102 55.9088 94.2468 55.4672 92.9073C55.0256 91.5678 55.7694 90.0624 57.1278 89.5442C62.7113 87.4167 68.6124 87.0952 74.1959 88.6143C75.5518 88.9846 76.2956 90.4089 75.8565 91.7964C75.5027 92.9092 74.4903 93.6656 73.4005 93.725Z" fill="#0A2948"/>
<path d="M97.5176 53.6163C95.1855 60.8748 88.5173 66.3561 80.7464 66.7796C80.3745 66.7999 80 66.8073 79.623 66.8045C75.8086 66.7707 72.2834 65.5028 69.4219 63.2453C69.5148 64.5262 69.6181 65.8247 69.7731 67.227C70.1657 70.8115 72.0561 73.5506 75.2378 75.1464C77.3555 76.2105 79.8864 76.6805 82.5025 76.7042C86.9807 76.7433 91.7223 75.4743 95.0874 73.6568C98.6436 71.7354 100.955 68.4997 101.43 64.7769C101.903 61.075 100.516 57.2303 97.5176 53.6163Z" fill="white"/>
<path d="M74.3206 43.2249C70.971 44.8364 69.2923 49.477 69.2148 57.2442L69.3156 57.4153C71.6321 60.7159 75.444 62.8594 79.8731 62.8986C80.1675 62.9007 80.4619 62.8951 80.7537 62.8791C87.5562 62.5084 93.2766 57.1643 94.3199 50.3863C94.0229 50.1297 93.7492 49.8666 93.4341 49.6136C83.8399 41.9007 76.7327 42.0621 74.3206 43.2249Z" fill="#071F36"/>
<path d="M80.7486 66.7772C88.5196 66.3537 95.1877 60.8726 97.5198 53.6146C96.6056 52.5136 95.5286 51.437 94.3148 50.3887C93.2715 57.1661 87.5511 62.5098 80.7486 62.8805C80.4568 62.8964 80.1624 62.902 79.868 62.8999C75.4389 62.8607 71.627 60.7174 69.3105 57.4171L69.2097 57.246C69.1917 59.068 69.264 61.0696 69.4241 63.243C72.2856 65.5004 75.8108 66.7683 79.6252 66.802C80.0023 66.8074 80.3767 66.7974 80.7486 66.7772Z" fill="#01D1FD"/>
<path d="M74.48 54.2018C76.0589 54.1157 77.3389 52.7583 77.3389 51.1698C77.3389 49.5814 76.0589 48.3635 74.48 48.4495C72.9011 48.5356 71.6211 49.893 71.6211 51.4815C71.6211 53.0699 72.9011 54.2878 74.48 54.2018Z" fill="white"/>
<path d="M50.5822 68.4173C42.8113 68.8408 36.1431 64.0862 33.811 57.0819C30.8127 61.0227 29.4284 65.0185 29.8984 68.6664C30.3762 72.3372 32.685 75.3237 36.2412 76.8549C39.6063 78.3057 44.3453 79.058 48.826 78.5306C51.4422 78.2218 53.9731 77.4785 56.0908 76.1811C59.2699 74.2386 61.1604 71.2934 61.5555 67.666C61.7104 66.2494 61.8137 64.9448 61.9067 63.6564C59.0582 66.2095 55.5278 67.8672 51.7056 68.3171C51.3285 68.3662 50.9541 68.397 50.5822 68.4173Z" fill="white"/>
<path d="M50.5779 64.5182C50.8697 64.5023 51.1642 64.4759 51.4586 64.4416C55.8877 63.9197 59.6995 61.3607 62.0161 57.8077L62.1168 57.6255C62.0367 49.867 60.3607 45.4092 57.0111 44.1628C54.599 43.2628 47.4892 43.8763 37.8975 52.6322C37.5825 52.9196 37.3113 53.2124 37.0117 53.5015C38.0551 60.1683 43.7754 64.8889 50.5779 64.5182Z" fill="#071F36"/>
<path d="M62.1186 57.627L62.0179 57.8091C59.7014 61.3618 55.8895 63.9206 51.4604 64.4425C51.166 64.4767 50.8716 64.5032 50.5797 64.5191C43.7773 64.8898 38.0569 60.1695 37.0136 53.5059C35.7997 54.6865 34.7228 55.8804 33.8086 57.0811C36.1406 64.0849 42.8088 68.8392 50.5797 68.4158C50.9516 68.3955 51.3261 68.3621 51.7032 68.3182C55.5254 67.8683 59.0557 66.2108 61.9043 63.6577C62.0644 61.4643 62.1393 59.4521 62.1186 57.627Z" fill="#01D1FD"/>
<path d="M44.4386 55.8289C46.0139 55.6443 47.2122 54.2124 47.1115 52.633C47.0134 51.0535 45.655 49.922 44.0796 50.1066C42.5042 50.2912 41.3059 51.7231 41.4041 53.3026C41.5048 54.882 42.8632 56.0135 44.4386 55.8289Z" fill="white"/>
<path d="M98.7479 0.534875L0.00390625 5.9375L16.2919 20.4257L115.036 15.0231L98.7479 0.534875Z" fill="#6FA3FF"/>
<path d="M16.3038 20.4495L-0.00390625 5.93054V103.937L16.3038 118.456V20.4495Z" fill="#0357E1"/>
</g>
<defs>
<clipPath id="clip0_1246_23056">
<rect width="116.289" height="120" fill="white" transform="translate(0 0.536133)"/>
</clipPath>
</defs>
</svg>
